<svg width="611" height="174" viewBox="0 0 611 174" fill="none" xmlns="http://www.w3.org/2000/svg">
<path d="M205.752 139V34.2727H247.07C254.98 34.2727 261.73 35.6875 267.32 38.517C272.945 41.3125 277.224 45.2841 280.156 50.4318C283.122 55.5455 284.605 61.5625 284.605 68.483C284.605 75.4375 283.105 81.4205 280.105 86.4318C277.105 91.4091 272.758 95.2273 267.065 97.8864C261.406 100.545 254.553 101.875 246.508 101.875H218.843V84.0795H242.928C247.156 84.0795 250.667 83.5 253.463 82.3409C256.258 81.1818 258.338 79.4432 259.701 77.125C261.099 74.8068 261.798 71.9261 261.798 68.483C261.798 65.0057 261.099 62.0739 259.701 59.6875C258.338 57.3011 256.241 55.4943 253.411 54.267C250.616 53.0057 247.088 52.375 242.826 52.375H227.894V139H205.752ZM262.309 91.3409L288.338 139H263.894L238.428 91.3409H262.309ZM295.932 34.2727H323.239L352.08 104.636H353.307L382.148 34.2727H409.455V139H387.978V70.8352H387.108L360.006 138.489H345.381L318.279 70.5795H317.41V139H295.932V34.2727ZM480.19 64.392C479.781 60.267 478.026 57.0625 474.923 54.7784C471.821 52.4943 467.611 51.3523 462.293 51.3523C458.679 51.3523 455.628 51.8636 453.139 52.8864C450.651 53.875 448.742 55.2557 447.412 57.0284C446.117 58.8011 445.469 60.8125 445.469 63.0625C445.401 64.9375 445.793 66.5739 446.645 67.9716C447.531 69.3693 448.742 70.5795 450.276 71.6023C451.81 72.5909 453.582 73.4602 455.594 74.2102C457.605 74.9261 459.753 75.5398 462.037 76.0511L471.446 78.3011C476.014 79.3239 480.207 80.6875 484.026 82.392C487.844 84.0966 491.151 86.1932 493.946 88.6818C496.742 91.1705 498.906 94.1023 500.44 97.4773C502.009 100.852 502.81 104.722 502.844 109.085C502.81 115.494 501.173 121.051 497.935 125.756C494.73 130.426 490.094 134.057 484.026 136.648C477.992 139.205 470.713 140.483 462.19 140.483C453.736 140.483 446.372 139.188 440.1 136.597C433.861 134.006 428.986 130.17 425.475 125.091C421.997 119.977 420.173 113.653 420.003 106.119H441.429C441.668 109.631 442.673 112.562 444.446 114.915C446.253 117.233 448.656 118.989 451.656 120.182C454.69 121.341 458.117 121.92 461.935 121.92C465.685 121.92 468.94 121.375 471.702 120.284C474.497 119.193 476.662 117.676 478.196 115.733C479.73 113.79 480.497 111.557 480.497 109.034C480.497 106.682 479.798 104.705 478.401 103.102C477.037 101.5 475.026 100.136 472.367 99.0114C469.742 97.8864 466.52 96.8636 462.702 95.9432L451.298 93.0795C442.469 90.9318 435.497 87.5739 430.384 83.0057C425.27 78.4375 422.73 72.2841 422.764 64.5454C422.73 58.2045 424.418 52.6648 427.827 47.9261C431.27 43.1875 435.992 39.4886 441.992 36.8295C447.992 34.1705 454.81 32.8409 462.446 32.8409C470.219 32.8409 477.003 34.1705 482.798 36.8295C488.628 39.4886 493.162 43.1875 496.401 47.9261C499.639 52.6648 501.31 58.1534 501.412 64.392H480.19ZM601.014 34.2727V139H581.889L536.326 73.0852H535.559V139H513.417V34.2727H532.849L578.054 100.136H578.974V34.2727H601.014Z" fill="#0D0B14"/>
<path d="M45 64.75V19.75H135V64.75H90H45Z" fill="url(#paint0_linear_107_206)"/>
<path d="M0 64.75H45V154.75H0V109.75V64.75Z" fill="url(#paint1_linear_107_206)"/>
<path d="M90 109.75H135V154.75H90V109.75Z" fill="url(#paint2_linear_107_206)"/>
<defs>
<linearGradient id="paint0_linear_107_206" x1="135" y1="20.25" x2="-8.04663e-06" y2="155.25" gradientUnits="userSpaceOnUse">
<stop stop-color="#0D0B14"/>
<stop offset="1" stop-color="#4F437A"/>
</linearGradient>
<linearGradient id="paint1_linear_107_206" x1="135" y1="20.25" x2="-8.04663e-06" y2="155.25" gradientUnits="userSpaceOnUse">
<stop stop-color="#0D0B14"/>
<stop offset="1" stop-color="#4F437A"/>
</linearGradient>
<linearGradient id="paint2_linear_107_206" x1="135" y1="20.25" x2="-8.04663e-06" y2="155.25" gradientUnits="userSpaceOnUse">
<stop stop-color="#0D0B14"/>
<stop offset="1" stop-color="#4F437A"/>
</linearGradient>
</defs>
</svg>
